<svg width="45" height="45" viewBox="0 0 45 45" fill="none" xmlns="http://www.w3.org/2000/svg">
<path d="M22.4965 44.9931C34.921 44.9931 44.9931 34.921 44.9931 22.4965C44.9931 10.072 34.921 0 22.4965 0C10.072 0 0 10.072 0 22.4965C0 34.921 10.072 44.9931 22.4965 44.9931Z" fill="#00E17B"/>
<path d="M14.354 22.5035C14.3739 24.8541 15.3166 27.1027 16.9787 28.7648C18.6409 30.427 20.8895 31.3696 23.2401 31.3896C24.7316 31.3961 26.2004 31.0241 27.5091 30.3085C28.8177 29.5928 29.9234 28.5568 30.7227 27.2974C31.1522 26.6586 31.8118 26.2103 32.5638 26.0459C33.3159 25.8815 34.1024 26.0138 34.7593 26.4151C35.0777 26.6267 35.3514 26.899 35.5646 27.2164C35.7778 27.5338 35.9264 27.8901 36.0019 28.265C36.0774 28.6398 36.0783 29.0259 36.0046 29.4011C35.9308 29.7763 35.7839 30.1332 35.5722 30.4516C34.2486 32.5198 32.4244 34.2205 30.2687 35.3961C28.113 36.5717 25.6955 37.1843 23.2401 37.177C19.3623 37.1568 15.6504 35.6017 12.9162 32.8519C10.182 30.1021 8.64807 26.3813 8.64996 22.5035C8.64448 20.5821 9.01751 18.6784 9.74777 16.9011C10.478 15.1237 11.5512 13.5076 12.906 12.1451C14.2608 10.7825 15.8707 9.70012 17.6439 8.95975C19.417 8.21938 21.3186 7.83554 23.2401 7.83008C25.8161 7.831 28.3472 8.50529 30.5823 9.78614C32.8174 11.067 34.6789 12.9099 35.9821 15.1321C36.3617 15.8012 36.4644 16.5923 36.2684 17.3362C36.0723 18.0801 35.593 18.7179 34.933 19.1131C34.2613 19.4794 33.4747 19.574 32.7353 19.3775C31.9959 19.181 31.3601 18.7084 30.9589 18.057C30.1782 16.7019 29.0529 15.5775 27.6973 14.7978C26.3417 14.0181 24.8039 13.6109 23.2401 13.6174C20.8861 13.6266 18.6312 14.5658 16.9668 16.2303C15.3023 17.8948 14.3631 20.1496 14.354 22.5035Z" fill="#1C1134"/>
</svg>
