<svg width="221" height="37" viewBox="0 0 221 37" fill="none" xmlns="http://www.w3.org/2000/svg">
<path d="M9.27709 12.9779C10.2692 12.9737 11.2447 13.2368 12.1044 13.7404C12.964 14.244 13.6771 14.97 14.1711 15.8447C14.4271 16.2646 14.8314 16.569 15.3011 16.6956C15.7709 16.8221 16.2704 16.7613 16.6974 16.5256C17.1174 16.2716 17.4223 15.8601 17.5465 15.3796C17.6707 14.8992 17.6042 14.3884 17.3613 13.9574C16.5416 12.5225 15.3652 11.3318 13.9501 10.5048C12.5351 9.67773 10.931 9.24332 9.29875 9.24509C7.66648 9.24687 6.06334 9.68477 4.65002 10.5149C3.2367 11.345 2.06285 12.5382 1.24612 13.9749C0.429394 15.4116 -0.00151375 17.0413 -0.00341167 18.7006C-0.00530959 20.3599 0.421869 21.9906 1.23531 23.4292C2.04874 24.8678 3.21986 26.0638 4.63128 26.8972C6.0427 27.7307 7.64483 28.1724 9.27709 28.178C10.8353 28.1846 12.3699 27.7905 13.7381 27.0324C15.1063 26.2743 16.2638 25.1768 17.1028 23.842C17.3732 23.4267 17.4706 22.9195 17.3737 22.4313C17.2768 21.9432 16.9934 21.5141 16.5858 21.2379C16.1694 20.9778 15.6702 20.8917 15.1927 20.9974C14.7151 21.1032 14.2964 21.3927 14.0242 21.8053C13.5169 22.6173 12.8153 23.2853 11.9852 23.7469C11.155 24.2086 10.2233 24.4488 9.27709 24.4452C7.78123 24.4452 6.34664 23.8411 5.2889 22.7658C4.23117 21.6906 3.63694 20.2322 3.63694 18.7115C3.63694 17.1909 4.23117 15.7325 5.2889 14.6572C6.34664 13.582 7.78123 12.9779 9.27709 12.9779Z" fill="#00DF7C"/>
<path d="M23.1368 -0.000303629C22.8959 -0.00345901 22.6567 0.0418606 22.4331 0.133046C22.2094 0.224232 22.0058 0.359483 21.8338 0.531014C21.6617 0.702544 21.5248 0.906966 21.4308 1.13251C21.3368 1.35806 21.2877 1.60027 21.2861 1.84522V26.279C21.272 26.5329 21.309 26.7872 21.3949 27.0261C21.4808 27.2651 21.6137 27.4837 21.7856 27.6686C21.9575 27.8535 22.1646 28.0007 22.3945 28.1014C22.6243 28.2021 22.8719 28.254 23.1221 28.254C23.3724 28.254 23.62 28.2021 23.8498 28.1014C24.0796 28.0007 24.2868 27.8535 24.4587 27.6686C24.6306 27.4837 24.7635 27.2651 24.8494 27.0261C24.9353 26.7872 24.9723 26.5329 24.9581 26.279V1.84522C24.9566 1.35521 24.764 0.885804 24.4226 0.539873C24.0812 0.193941 23.6188 -0.000306178 23.1368 -0.000303629Z" fill="#00DF7C"/>
<path d="M38.0711 9.24475C36.8297 9.23922 35.5996 9.4837 34.4516 9.96408C33.3037 10.4445 32.2607 11.1512 31.3829 12.0436C30.5051 12.9359 29.8099 13.9962 29.3373 15.1632C28.8648 16.3301 28.6243 17.5807 28.6297 18.8427C28.6297 24.218 32.807 28.1778 38.0711 28.1778C40.0797 28.261 42.0474 27.5843 43.5938 26.2785C43.6139 26.7576 43.8032 27.2132 44.1269 27.562C44.4506 27.9108 44.887 28.1294 45.3563 28.1778C45.6065 28.1912 45.8567 28.1515 46.091 28.0612C46.3252 27.971 46.5384 27.832 46.717 27.6534C46.8955 27.4747 47.0355 27.2601 47.1279 27.0234C47.2204 26.7867 47.2633 26.533 47.254 26.2785V18.8427C47.254 13.4912 43.3353 9.24475 38.0711 9.24475ZM38.0711 24.4867C37.328 24.5026 36.5891 24.3689 35.8969 24.0934C35.2047 23.818 34.573 23.4062 34.0379 22.8817C33.5028 22.3572 33.075 21.7303 32.7791 21.0371C32.4832 20.344 32.3249 19.5982 32.3135 18.8427C32.3377 17.2906 32.9554 15.8092 34.0356 14.7122C35.1158 13.6152 36.5738 12.9887 38.1005 12.9657C38.8432 12.9811 39.5757 13.1457 40.2557 13.4497C40.9357 13.7538 41.5499 14.1915 42.0631 14.7376C42.5763 15.2836 42.9783 15.9274 43.246 16.6319C43.5137 17.3364 43.6419 18.0877 43.6231 18.8427C43.6417 19.589 43.5108 20.3314 43.2383 21.0247C42.9659 21.718 42.5576 22.3477 42.0383 22.8756C41.519 23.4035 40.8995 23.8186 40.2175 24.0955C39.5355 24.3725 38.8053 24.5056 38.0711 24.4867Z" fill="#00DF7C"/>
<path d="M60.2379 9.24521C57.7687 9.24679 55.401 10.2447 53.655 12.0196C51.9089 13.7946 50.9273 16.2015 50.9258 18.7117V26.2789C50.9117 26.5329 50.9487 26.7872 51.0345 27.0261C51.1204 27.2651 51.2534 27.4837 51.4252 27.6686C51.5971 27.8534 51.8043 28.0007 52.0341 28.1014C52.2639 28.2021 52.5115 28.254 52.7618 28.254C53.012 28.254 53.2596 28.2021 53.4894 28.1014C53.7193 28.0007 53.9264 27.8534 54.0983 27.6686C54.2702 27.4837 54.4031 27.2651 54.489 27.0261C54.5749 26.7872 54.6119 26.5329 54.5978 26.2789V18.7117C54.5978 17.1911 55.192 15.7327 56.2497 14.6574C57.3075 13.5821 58.7421 12.9781 60.2379 12.9781C60.7298 12.9765 61.2012 12.7771 61.549 12.4235C61.8968 12.0699 62.0929 11.5908 62.0945 11.0907C62.0929 10.8453 62.0436 10.6026 61.9492 10.3766C61.8549 10.1507 61.7174 9.94599 61.5448 9.77438C61.3722 9.60277 61.1678 9.46764 60.9435 9.37681C60.7191 9.28599 60.4793 9.24125 60.2379 9.24521Z" fill="#00DF7C"/>
<path d="M79.9025 9.88456C79.5822 9.5112 79.1318 9.27885 78.6463 9.23652C78.1607 9.19417 77.678 9.34515 77.2998 9.65761L68.8807 15.2778V1.85147C68.873 1.35666 68.6738 0.884874 68.3263 0.538317C67.9788 0.19176 67.5109 -0.00165358 67.0241 -2.02564e-05C66.5431 0.00313448 66.0829 0.199594 65.7439 0.546475C65.4049 0.893356 65.2146 1.36249 65.2146 1.85147V26.2792C65.2107 26.5247 65.2547 26.7684 65.3441 26.9965C65.4334 27.2245 65.5663 27.4323 65.7351 27.6078C65.9039 27.7833 66.1053 27.923 66.3276 28.0189C66.5498 28.1148 66.7886 28.165 67.03 28.1666C67.5209 28.1634 67.9907 27.9634 68.3373 27.6099C68.6839 27.2565 68.8792 26.7783 68.8807 26.2792V19.7094L70.0557 18.9151L77.1059 27.5156C77.2549 27.7072 77.4408 27.8659 77.6522 27.9818C77.8637 28.0978 78.0962 28.1686 78.3356 28.1898C78.5749 28.2111 78.816 28.1824 79.0441 28.1054C79.2721 28.0285 79.4822 27.905 79.6616 27.7425C80.0349 27.4319 80.2722 26.9837 80.3218 26.4959C80.3713 26.0081 80.229 25.5201 79.926 25.1385L73.1461 16.8605L79.6381 12.5424C80.0175 12.224 80.2581 11.7663 80.3076 11.2687C80.3571 10.7711 80.2115 10.2737 79.9025 9.88456Z" fill="#00DF7C"/>
<path d="M92.028 9.24493C90.8051 9.24493 89.5942 9.48979 88.4644 9.96552C87.3346 10.4413 86.308 11.1386 85.4433 12.0176C84.5786 12.8966 83.8926 13.9402 83.4247 15.0888C82.9567 16.2373 82.7158 17.4683 82.7158 18.7114C82.7158 19.9546 82.9567 21.1856 83.4247 22.3341C83.8926 23.4826 84.5786 24.5262 85.4433 25.4053C86.308 26.2843 87.3346 26.9816 88.4644 27.4573C89.5942 27.9331 90.8051 28.1779 92.028 28.1779C94.0568 28.3026 96.068 27.7304 97.7386 26.5534C98.1669 26.3286 98.4965 25.9484 98.6619 25.4882C98.8273 25.028 98.8165 24.5213 98.6316 24.0688C98.5352 23.841 98.3932 23.6359 98.2148 23.4667C98.0364 23.2975 97.8253 23.1679 97.595 23.0859C97.3647 23.0039 97.1202 22.9714 96.8769 22.9905C96.6336 23.0096 96.3969 23.0799 96.1817 23.1968C94.9538 24.0317 93.505 24.4671 92.028 24.4451C90.8503 24.4434 89.7025 24.0678 88.745 23.3707C87.7875 22.6736 87.0682 21.6899 86.6874 20.5569H99.4835C99.725 20.5609 99.9648 20.5162 100.189 20.4253C100.413 20.3345 100.618 20.1994 100.79 20.0278C100.963 19.8562 101.1 19.6515 101.195 19.4255C101.289 19.1996 101.339 18.9569 101.34 18.7114C101.34 12.5418 96.5166 9.24493 92.028 9.24493ZM86.6874 16.8241C87.0773 15.7004 87.8002 14.7272 88.7566 14.0384C89.713 13.3496 90.8559 12.9791 92.028 12.9778C93.2155 12.9317 94.385 13.283 95.3572 13.9778C96.3293 14.6727 97.0503 15.6726 97.4096 16.8241H86.6874Z" fill="#00DF7C"/>
<path d="M113.814 9.84254C111.543 9.90251 109.385 10.8617 107.8 12.5156C106.214 14.1696 105.327 16.3876 105.327 18.6969C105.327 21.0061 106.214 23.2241 107.8 24.8781C109.385 26.532 111.543 27.4912 113.814 27.5512H113.908C115.789 27.6628 117.652 27.1262 119.195 26.0282C119.495 25.8736 119.728 25.6118 119.85 25.2932C119.971 24.9746 119.972 24.6217 119.853 24.3021C119.766 24.1275 119.645 23.9731 119.496 23.8487C119.347 23.7243 119.175 23.6326 118.99 23.5794C118.869 23.5412 118.741 23.5299 118.615 23.5464C118.49 23.5629 118.369 23.6067 118.261 23.675C116.938 24.5691 115.379 25.0355 113.79 25.0128C112.496 25.0052 111.236 24.5898 110.184 23.824C109.132 23.0581 108.339 21.9794 107.915 20.7365L107.645 19.9421H121.263C121.427 19.9461 121.591 19.9168 121.743 19.8559C121.896 19.7951 122.035 19.7038 122.153 19.5876C122.27 19.4714 122.364 19.3325 122.428 19.179C122.492 19.0255 122.526 18.8606 122.527 18.6939C122.527 12.9423 118.038 9.84254 113.814 9.84254ZM107.651 17.4098L107.933 16.6095C108.364 15.3748 109.16 14.3057 110.212 13.5478C111.263 12.79 112.519 12.3804 113.808 12.3749C115.97 12.3749 118.814 13.4918 119.742 16.6393L119.971 17.4098H107.651Z" fill="#00DF7C"/>
<path d="M134.171 9.84254C131.863 9.8457 129.65 10.7793 128.018 12.4385C126.386 14.0978 125.467 16.3473 125.464 18.6939V26.279C125.459 26.4457 125.487 26.6117 125.547 26.7672C125.606 26.9228 125.695 27.0648 125.809 27.1849C125.922 27.305 126.059 27.4009 126.209 27.4668C126.36 27.5328 126.522 27.5676 126.686 27.5691C126.853 27.5707 127.019 27.5384 127.174 27.4741C127.328 27.4099 127.469 27.3149 127.587 27.1948C127.705 27.0747 127.799 26.9318 127.862 26.7746C127.925 26.6174 127.957 26.4489 127.955 26.279V18.6939C127.955 17.8641 128.116 17.0424 128.428 16.2757C128.741 15.5091 129.199 14.8125 129.776 14.2257C130.353 13.6389 131.038 13.1735 131.792 12.8559C132.547 12.5384 133.355 12.3749 134.171 12.3749C134.987 12.3749 135.796 12.5384 136.55 12.8559C137.304 13.1735 137.989 13.6389 138.566 14.2257C139.144 14.8125 139.601 15.5091 139.914 16.2757C140.226 17.0424 140.387 17.8641 140.387 18.6939V26.279C140.384 26.6092 140.508 26.9275 140.733 27.1654C140.959 27.4033 141.267 27.5418 141.591 27.5512C141.759 27.556 141.925 27.5266 142.081 27.4648C142.237 27.403 142.379 27.3101 142.499 27.1915C142.619 27.0729 142.715 26.931 142.78 26.7743C142.845 26.6176 142.878 26.4491 142.878 26.279V18.6939C142.875 16.3473 141.957 14.0978 140.324 12.4385C138.692 10.7793 136.479 9.8457 134.171 9.84254Z" fill="#00DF7C"/>
<path d="M154.517 9.84254C152.246 9.90251 150.088 10.8617 148.503 12.5156C146.918 14.1696 146.031 16.3876 146.031 18.6969C146.031 21.0061 146.918 23.2241 148.503 24.8781C150.088 26.532 152.246 27.4912 154.517 27.5512H154.611C156.492 27.6628 158.355 27.1262 159.899 26.0282C160.203 25.8776 160.441 25.6176 160.567 25.2987C160.693 24.9797 160.698 24.6245 160.58 24.3021C160.494 24.1283 160.373 23.9745 160.225 23.8502C160.078 23.7259 159.907 23.6337 159.723 23.5794C159.601 23.541 159.472 23.5297 159.345 23.5462C159.218 23.5627 159.097 23.6066 158.988 23.675C157.665 24.5691 156.106 25.0355 154.517 25.0128C153.223 25.0052 151.963 24.5898 150.911 23.824C149.859 23.0581 149.066 21.9794 148.642 20.7365L148.372 19.9421H161.979C162.143 19.9461 162.306 19.9168 162.458 19.8559C162.611 19.7951 162.75 19.7038 162.868 19.5876C162.986 19.4714 163.079 19.3325 163.143 19.179C163.208 19.0255 163.241 18.8606 163.242 18.6939C163.236 12.9423 158.747 9.84254 154.517 9.84254ZM148.36 17.4098L148.642 16.6095C149.074 15.3748 149.869 14.3057 150.921 13.5478C151.972 12.79 153.228 12.3804 154.517 12.3749C156.679 12.3749 159.523 13.4918 160.451 16.6393L160.68 17.4098H148.36Z" fill="#00DF7C"/>
<path d="M174.881 9.8426C172.572 9.84576 170.359 10.7793 168.727 12.4386C167.095 14.0979 166.177 16.3474 166.174 18.6939V26.2791C166.174 26.6149 166.305 26.937 166.538 27.1744C166.772 27.4119 167.089 27.5453 167.419 27.5453C167.749 27.5453 168.066 27.4119 168.3 27.1744C168.533 26.937 168.665 26.6149 168.665 26.2791V18.6939C168.668 17.019 169.324 15.4136 170.489 14.2292C171.654 13.0449 173.233 12.3781 174.881 12.375C175.216 12.375 175.537 12.2397 175.774 11.9989C176.011 11.758 176.144 11.4314 176.144 11.0909C176.143 10.9241 176.11 10.7592 176.045 10.6057C175.981 10.4523 175.888 10.3134 175.77 10.1971C175.652 10.0809 175.513 9.98969 175.36 9.92882C175.208 9.86794 175.045 9.83863 174.881 9.8426Z" fill="#00DF7C"/>
<path d="M186.619 9.84233C185.231 9.83532 183.861 10.1655 182.624 10.8052C181.387 11.445 180.319 12.376 179.507 13.5205C178.696 14.6651 178.165 15.9902 177.959 17.3855C177.753 18.7808 177.878 20.2059 178.323 21.5421C178.769 22.8784 179.522 24.0871 180.52 25.0677C181.518 26.0484 182.731 26.7725 184.06 27.1797C185.389 27.587 186.794 27.6657 188.159 27.4093C189.524 27.1529 190.809 26.5687 191.906 25.7055L192.846 25.0007V28.2557C192.821 29.6773 192.325 31.0486 191.438 32.1483C190.552 33.2481 189.327 34.0122 187.961 34.3172C186.595 34.6223 185.167 34.4506 183.909 33.8298C182.651 33.209 181.635 32.1753 181.026 30.8956C180.871 30.6057 180.611 30.3882 180.302 30.289C179.993 30.1897 179.657 30.2165 179.367 30.3637C179.077 30.5109 178.854 30.767 178.746 31.0779C178.638 31.3889 178.652 31.7304 178.787 32.0304C179.653 33.8287 181.092 35.2762 182.87 36.1371C184.648 36.998 186.66 37.2216 188.579 36.7715C190.498 36.3213 192.211 35.224 193.438 33.6582C194.665 32.0924 195.335 30.1503 195.337 28.1482V18.6937C195.334 16.345 194.414 14.0937 192.78 12.4341C191.145 10.7745 188.929 9.84233 186.619 9.84233ZM186.619 25.0126C185.389 25.0126 184.188 24.642 183.165 23.9477C182.143 23.2534 181.346 22.2665 180.876 21.1118C180.405 19.9572 180.282 18.6867 180.522 17.4609C180.762 16.2351 181.354 15.1092 182.223 14.2255C183.093 13.3418 184.2 12.7399 185.406 12.4961C186.612 12.2523 187.862 12.3774 188.997 12.8557C190.133 13.334 191.104 14.1439 191.787 15.183C192.47 16.2222 192.835 17.4439 192.835 18.6937C192.813 20.3628 192.152 21.9575 190.99 23.1379C189.829 24.3183 188.261 24.991 186.619 25.0126Z" fill="#00DF7C"/>
<path d="M199.526 9.8426C199.362 9.83863 199.199 9.86794 199.046 9.92882C198.893 9.98969 198.754 10.0809 198.637 10.1971C198.519 10.3134 198.425 10.4523 198.361 10.6057C198.297 10.7592 198.263 10.9241 198.263 11.0909V26.2791C198.261 26.4484 198.293 26.6164 198.356 26.7733C198.418 26.9301 198.511 27.0727 198.629 27.1927C198.746 27.3127 198.886 27.4078 199.04 27.4725C199.194 27.5371 199.359 27.57 199.526 27.5692C199.69 27.5676 199.853 27.5329 200.004 27.467C200.155 27.4011 200.291 27.3053 200.405 27.1853C200.52 27.0653 200.609 26.9233 200.669 26.7678C200.729 26.6122 200.758 26.4461 200.754 26.2791V11.0909C200.752 10.7603 200.622 10.4437 200.392 10.2099C200.163 9.97619 199.851 9.84417 199.526 9.8426Z" fill="#00DF7C"/>
<path d="M212.475 9.84227C211.315 9.8294 210.165 10.0526 209.092 10.4986C208.019 10.9446 207.044 11.6045 206.225 12.4394C205.407 13.2743 204.761 14.2673 204.326 15.3599C203.891 16.4524 203.675 17.6225 203.692 18.8011C203.692 23.7404 207.469 27.4673 212.475 27.4673C214.335 27.5345 216.154 26.8982 217.58 25.6815L218.556 24.8692V26.1474C218.577 26.4666 218.705 26.7689 218.919 27.0038C219.133 27.2386 219.419 27.3916 219.731 27.4374C219.899 27.4451 220.068 27.4169 220.225 27.3548C220.383 27.2926 220.525 27.1979 220.645 27.0765C220.764 26.9552 220.857 26.8099 220.919 26.6499C220.98 26.49 221.007 26.3188 221 26.1474V18.7712C221 13.6826 217.334 9.84227 212.475 9.84227ZM212.475 24.9409C210.832 24.9729 209.243 24.3416 208.057 23.1851C206.871 22.0287 206.184 20.4415 206.147 18.7712C206.169 17.072 206.842 15.4484 208.024 14.2468C209.206 13.0451 210.803 12.3605 212.475 12.3388C214.12 12.3733 215.684 13.0701 216.824 14.2761C217.965 15.4822 218.587 17.0989 218.556 18.7712C218.574 19.5876 218.43 20.3993 218.13 21.1572C217.831 21.915 217.384 22.6032 216.815 23.1801C216.247 23.757 215.569 24.2105 214.823 24.5131C214.077 24.8158 213.278 24.9613 212.475 24.9409Z" fill="#00DF7C"/>
</svg>
